<?xml version="1.0" encoding="UTF-8"?>
<svg xmlns="http://www.w3.org/2000/svg" viewBox="0 0 1600 1200" width="1600" height="1200">
  <defs>
    <linearGradient id="sky" x1="0" y1="0" x2="0" y2="1">
      <stop offset="0%" stop-color="#c6edff"/>
      <stop offset="80%" stop-color="#f5fbff"/>
      <stop offset="100%" stop-color="#ffffff"/>
    </linearGradient>
    <linearGradient id="hill" x1="0" y1="0" x2="1" y2="1">
      <stop offset="0%" stop-color="#9be28e"/>
      <stop offset="100%" stop-color="#7bcf78"/>
    </linearGradient>
    <linearGradient id="thoraxOlive" x1="0" y1="0" x2="0" y2="1">
      <stop offset="0%" stop-color="#9dc56b"/>
      <stop offset="100%" stop-color="#5f8837"/>
    </linearGradient>
    <linearGradient id="abdomenOlive" x1="0" y1="0" x2="1" y2="0">
      <stop offset="0%" stop-color="#38511f"/>
      <stop offset="50%" stop-color="#a6cf7a"/>
      <stop offset="100%" stop-color="#38511f"/>
    </linearGradient>
    <linearGradient id="wingTint" x1="0" y1="0" x2="1" y2="0">
      <stop offset="0%" stop-color="#ffffff" stop-opacity="0.96"/>
      <stop offset="100%" stop-color="#eef6ff" stop-opacity="0.88"/>
    </linearGradient>
  </defs>

  <rect x="0" y="0" width="1600" height="1200" fill="url(#sky)"/>
  <path d="M0,780 C240,700 360,720 520,780 C720,860 900,820 1100,780 C1280,748 1440,760 1600,780 L1600,1200 L0,1200 Z" fill="url(#hill)"/>

  <g filter="url(#softShadow)" transform="translate(120,80)">
    <rect x="0" y="0" rx="20" ry="20" width="840" height="160" fill="#ffffff"/>
    <text x="36" y="68" font-size="56" font-weight="700" fill="#2b4c7e" font-family="'Noto Sans KR', 'Pretendard', 'Segoe UI', sans-serif">잠자리 탐험대 워크북 06</text>
    <text x="36" y="118" font-size="28" fill="#5c748f" font-family="'Noto Sans KR', 'Pretendard', 'Segoe UI', sans-serif">잠깐의 휴식</text>
  </g>

  <!-- Resting on twig -->
  <g transform="translate(980,720)">
    <rect x="-300" y="20" width="600" height="16" rx="8" fill="#8b6b3e"/>
    <g stroke-linecap="round" stroke-linejoin="round" transform="translate(0,-10)">
      <g opacity="0.95" fill="url(#wingTint)" stroke="#cfe3f4" stroke-opacity="0.9">
        <ellipse cx="-88" cy="-10" rx="110" ry="34"/>
        <ellipse cx="88" cy="-10" rx="110" ry="34"/>
        <ellipse cx="-88" cy="10" rx="110" ry="34"/>
        <ellipse cx="88" cy="10" rx="110" ry="34"/>
      </g>
      <ellipse cx="0" cy="0" rx="20" ry="24" fill="url(#thoraxOlive)"/>
      <ellipse cx="0" cy="-26" rx="12" ry="10" fill="#2b2e34"/>
      <g fill="url(#abdomenOlive)" stroke="#1e2d2a" stroke-width="2">
        <rect x="-6" y="20" width="12" height="22" rx="6"/>
        <rect x="-6" y="42" width="12" height="22" rx="6"/>
        <rect x="-5.6" y="64" width="11.2" height="22" rx="6"/>
        <rect x="-5.2" y="86" width="10.4" height="22" rx="6"/>
        <rect x="-4.8" y="108" width="9.6" height="22" rx="6"/>
      </g>
    </g>
  </g>
</svg>
