<?xml version="1.0" encoding="UTF-8"?>
<svg xmlns="http://www.w3.org/2000/svg" viewBox="0 0 1600 1200" width="1600" height="1200">
  <defs>
    <linearGradient id="sky" x1="0" y1="0" x2="0" y2="1">
      <stop offset="0%" stop-color="#bde5ff"/>
      <stop offset="80%" stop-color="#eff8ff"/>
      <stop offset="100%" stop-color="#ffffff"/>
    </linearGradient>
    <linearGradient id="hill" x1="0" y1="0" x2="1" y2="1">
      <stop offset="0%" stop-color="#a2e89a"/>
      <stop offset="100%" stop-color="#7dd07a"/>
    </linearGradient>
    <radialGradient id="sunGrad" cx="50%" cy="50%" r="50%">
      <stop offset="0%" stop-color="#fff7b0"/>
      <stop offset="100%" stop-color="#ffd255"/>
    </radialGradient>
    <linearGradient id="thoraxPurple" x1="0" y1="0" x2="0" y2="1">
      <stop offset="0%" stop-color="#b08cff"/>
      <stop offset="100%" stop-color="#7b59d6"/>
    </linearGradient>
    <linearGradient id="abdomenPurple" x1="0" y1="0" x2="1" y2="0">
      <stop offset="0%" stop-color="#4a2e8a"/>
      <stop offset="50%" stop-color="#a38cff"/>
      <stop offset="100%" stop-color="#4a2e8a"/>
    </linearGradient>
    <linearGradient id="wingTint" x1="0" y1="0" x2="1" y2="0">
      <stop offset="0%" stop-color="#ffffff" stop-opacity="0.96"/>
      <stop offset="100%" stop-color="#eef6ff" stop-opacity="0.88"/>
    </linearGradient>
  </defs>

  <rect x="0" y="0" width="1600" height="1200" fill="url(#sky)"/>
  <g transform="translate(240,160)" fill="#ffffff" fill-opacity="0.9">
    <ellipse rx="120" ry="45"/>
    <ellipse rx="90" ry="35" transform="translate(110,-15)"/>
  </g>
  <g transform="translate(1260,160)"><circle r="70" fill="url(#sunGrad)"/></g>

  <path d="M0,780 C240,700 360,720 520,780 C720,860 900,820 1100,780 C1280,748 1440,760 1600,780 L1600,1200 L0,1200 Z" fill="url(#hill)"/>

  <g filter="url(#softShadow)" transform="translate(120,80)">
    <rect x="0" y="0" rx="20" ry="20" width="840" height="160" fill="#ffffff"/>
    <text x="36" y="68" font-size="56" font-weight="700" fill="#2b4c7e" font-family="'Noto Sans KR', 'Pretendard', 'Segoe UI', sans-serif">잠자리 탐험대 워크북 03</text>
    <text x="36" y="118" font-size="28" fill="#5c748f" font-family="'Noto Sans KR', 'Pretendard', 'Segoe UI', sans-serif">비상하는 순간</text>
  </g>

  <g stroke-linecap="round" stroke-linejoin="round" transform="translate(980,620) rotate(-18)">
    <g opacity="0.95" fill="url(#wingTint)" stroke="#cfe3f4" stroke-opacity="0.9">
      <ellipse cx="-98" cy="-12" rx="120" ry="38"/>
      <ellipse cx="98" cy="-12" rx="120" ry="38"/>
      <ellipse cx="-98" cy="12" rx="120" ry="38"/>
      <ellipse cx="98" cy="12" rx="120" ry="38"/>
    </g>
    <ellipse cx="0" cy="0" rx="22" ry="26" fill="url(#thoraxPurple)"/>
    <ellipse cx="0" cy="-30" rx="14" ry="12" fill="#2b2e34"/>
    <g fill="url(#abdomenPurple)" stroke="#1e2d2a" stroke-width="2">
      <rect x="-7" y="24" width="14" height="24" rx="7"/>
      <rect x="-7" y="48" width="14" height="24" rx="7"/>
      <rect x="-6.5" y="72" width="13" height="24" rx="7"/>
      <rect x="-6" y="96" width="12" height="24" rx="7"/>
      <rect x="-5.5" y="120" width="11" height="24" rx="7"/>
      <rect x="-5" y="144" width="10" height="22" rx="7"/>
    </g>
    <g fill="none" stroke="#2b2e34" stroke-width="3">
      <path d="M-6,2 C-22,6 -36,16 -50,28"/>
      <path d="M6,2 C22,6 36,16 50,28"/>
      <path d="M-8,-2 C-26,0 -44,8 -60,16"/>
      <path d="M8,-2 C26,0 44,8 60,16"/>
      <path d="M-4,6 C-20,12 -30,24 -38,36"/>
      <path d="M4,6 C20,12 30,24 38,36"/>
    </g>
  </g>

  <g fill="none" stroke="#b6d1e6" stroke-width="4" stroke-linecap="round" opacity="0.7">
    <path d="M920,640 C820,600 760,620 680,600"/>
  </g>
</svg>
