<?xml version="1.0" encoding="UTF-8"?>
<svg xmlns="http://www.w3.org/2000/svg" viewBox="0 0 1600 1200" width="1600" height="1200">
  <defs>
    <linearGradient id="sky" x1="0" y1="0" x2="0" y2="1">
      <stop offset="0%" stop-color="#b8e1ff"/>
      <stop offset="70%" stop-color="#eaf7ff"/>
      <stop offset="100%" stop-color="#ffffff"/>
    </linearGradient>
    <linearGradient id="hill" x1="0" y1="0" x2="1" y2="1">
      <stop offset="0%" stop-color="#9be28e"/>
      <stop offset="100%" stop-color="#7bcf78"/>
    </linearGradient>
    <linearGradient id="water" x1="0" y1="0" x2="0" y2="1">
      <stop offset="0%" stop-color="#a8dcff"/>
      <stop offset="100%" stop-color="#89c7f4"/>
    </linearGradient>
    <radialGradient id="sunGrad" cx="50%" cy="50%" r="50%">
      <stop offset="0%" stop-color="#fff8b5"/>
      <stop offset="100%" stop-color="#ffd75f"/>
    </radialGradient>

    <linearGradient id="thoraxGreen" x1="0" y1="0" x2="0" y2="1">
      <stop offset="0%" stop-color="#6fd49b"/>
      <stop offset="100%" stop-color="#4fb97f"/>
    </linearGradient>
    <linearGradient id="abdomenGreen" x1="0" y1="0" x2="1" y2="0">
      <stop offset="0%" stop-color="#2f7f5e"/>
      <stop offset="50%" stop-color="#50b48a"/>
      <stop offset="100%" stop-color="#2b6f59"/>
    </linearGradient>
    <linearGradient id="thoraxBlue" x1="0" y1="0" x2="0" y2="1">
      <stop offset="0%" stop-color="#7fb3ff"/>
      <stop offset="100%" stop-color="#5a82e0"/>
    </linearGradient>
    <linearGradient id="abdomenBlue" x1="0" y1="0" x2="1" y2="0">
      <stop offset="0%" stop-color="#274a8a"/>
      <stop offset="50%" stop-color="#6aa0ff"/>
      <stop offset="100%" stop-color="#274a8a"/>
    </linearGradient>
    <linearGradient id="thoraxOrange" x1="0" y1="0" x2="0" y2="1">
      <stop offset="0%" stop-color="#ffb088"/>
      <stop offset="100%" stop-color="#e6784f"/>
    </linearGradient>
    <linearGradient id="abdomenOrange" x1="0" y1="0" x2="1" y2="0">
      <stop offset="0%" stop-color="#a8442e"/>
      <stop offset="50%" stop-color="#ff9f7a"/>
      <stop offset="100%" stop-color="#a8442e"/>
    </linearGradient>

    <linearGradient id="wingTint" x1="0" y1="0" x2="1" y2="0">
      <stop offset="0%" stop-color="#ffffff" stop-opacity="0.95"/>
      <stop offset="100%" stop-color="#eaf6ff" stop-opacity="0.85"/>
    </linearGradient>

    <filter id="softShadow" x="-20%" y="-20%" width="140%" height="140%">
      <feDropShadow dx="0" dy="4" stdDeviation="8" flood-color="#000" flood-opacity="0.15"/>
    </filter>
  </defs>

  <rect x="0" y="0" width="1600" height="1200" fill="url(#sky)"/>

  <g transform="translate(1380,140)">
    <circle r="70" fill="url(#sunGrad)"/>
  </g>

  <g fill="#ffffff" fill-opacity="0.9">
    <g transform="translate(240,160)">
      <ellipse rx="120" ry="45"/>
      <ellipse rx="90" ry="35" transform="translate(110,-15)"/>
      <ellipse rx="70" ry="30" transform="translate(-110,0)"/>
    </g>
  </g>

  <path d="M0,760 C240,660 360,680 520,760 C720,860 900,820 1100,760 C1280,708 1440,720 1600,760 L1600,1200 L0,1200 Z" fill="url(#hill)"/>

  <ellipse cx="900" cy="920" rx="420" ry="140" fill="url(#water)" opacity="0.95"/>
  <ellipse cx="900" cy="940" rx="360" ry="100" fill="#ffffff" opacity="0.2"/>

  <g filter="url(#softShadow)" transform="translate(120,80)">
    <rect x="0" y="0" rx="20" ry="20" width="840" height="160" fill="#ffffff"/>
    <text x="36" y="68" font-size="56" font-weight="700" fill="#2b4c7e" font-family="'Noto Sans KR', 'Pretendard', 'Segoe UI', sans-serif">잠자리 탐험대 워크북 01</text>
    <text x="36" y="118" font-size="28" fill="#5c748f" font-family="'Noto Sans KR', 'Pretendard', 'Segoe UI', sans-serif">연못 주변 관찰</text>
  </g>

  <g id="dragonfly" stroke-linecap="round" stroke-linejoin="round">
    <g opacity="0.95" fill="url(#wingTint)" stroke="#cfe3f4" stroke-opacity="0.9">
      <ellipse cx="-78" cy="-8" rx="92" ry="30"/>
      <ellipse cx="78" cy="-8" rx="92" ry="30"/>
      <ellipse cx="-78" cy="8" rx="92" ry="30"/>
      <ellipse cx="78" cy="8" rx="92" ry="30"/>
    </g>
    <ellipse cx="0" cy="0" rx="18" ry="22" fill="currentColor"/>
    <ellipse cx="0" cy="-24" rx="12" ry="10" fill="#2b2e34"/>
    <ellipse cx="-6" cy="-24" rx="8" ry="9" fill="#3a6a9b"/>
    <ellipse cx="6" cy="-24" rx="8" ry="9" fill="#3a6a9b"/>
    <g fill="currentColor" stroke="#1e2d2a" stroke-width="2">
      <rect x="-6" y="18" width="12" height="20" rx="6"/>
      <rect x="-6" y="38" width="12" height="20" rx="6"/>
      <rect x="-5.5" y="58" width="11" height="20" rx="6"/>
      <rect x="-5" y="78" width="10" height="20" rx="6"/>
      <rect x="-4.5" y="98" width="9" height="20" rx="6"/>
      <rect x="-4" y="118" width="8" height="20" rx="6"/>
      <rect x="-3.5" y="138" width="7" height="20" rx="6"/>
      <rect x="-3" y="158" width="6" height="18" rx="6"/>
    </g>
  </g>

  <g>
    <g transform="translate(1080,520) rotate(-8)" style="color:url(#thoraxGreen)">
      <use href="#dragonfly"/>
      <g transform="translate(0,0)" style="color:url(#abdomenGreen)">
        <use href="#dragonfly"/>
      </g>
    </g>
    <g transform="translate(820,440) rotate(15)" style="color:url(#thoraxBlue)">
      <use href="#dragonfly"/>
      <g transform="translate(0,0)" style="color:url(#abdomenBlue)">
        <use href="#dragonfly"/>
      </g>
    </g>
    <g transform="translate(1240,680) rotate(-22)" style="color:url(#thoraxOrange)">
      <use href="#dragonfly"/>
      <g transform="translate(0,0)" style="color:url(#abdomenOrange)">
        <use href="#dragonfly"/>
      </g>
    </g>
  </g>

  <g fill="none" stroke="#b6d1e6" stroke-width="4" stroke-linecap="round" opacity="0.7">
    <path d="M980,520 C900,480 860,520 780,500"/>
    <path d="M1180,680 C1100,720 1060,700 980,740"/>
  </g>
</svg>
