<?xml version="1.0" encoding="UTF-8"?>
<svg xmlns="http://www.w3.org/2000/svg" viewBox="0 0 1600 1200" width="1600" height="1200">
  <defs>
    <linearGradient id="duskSky" x1="0" y1="0" x2="0" y2="1">
      <stop offset="0%" stop-color="#6f90ff"/>
      <stop offset="60%" stop-color="#a5b7ff"/>
      <stop offset="100%" stop-color="#e9efff"/>
    </linearGradient>
    <radialGradient id="sunset" cx="80%" cy="20%" r="50%">
      <stop offset="0%" stop-color="#ffd5a3"/>
      <stop offset="100%" stop-color="#ff9c66"/>
    </radialGradient>
    <linearGradient id="thoraxGold" x1="0" y1="0" x2="0" y2="1">
      <stop offset="0%" stop-color="#ffd37a"/>
      <stop offset="100%" stop-color="#cc9a2e"/>
    </linearGradient>
    <linearGradient id="abdomenGold" x1="0" y1="0" x2="1" y2="0">
      <stop offset="0%" stop-color="#7a5a1e"/>
      <stop offset="50%" stop-color="#ffd37a"/>
      <stop offset="100%" stop-color="#7a5a1e"/>
    </linearGradient>
    <linearGradient id="wingTint" x1="0" y1="0" x2="1" y2="0">
      <stop offset="0%" stop-color="#ffffff" stop-opacity="0.9"/>
      <stop offset="100%" stop-color="#f2f6ff" stop-opacity="0.8"/>
    </linearGradient>
  </defs>

  <rect x="0" y="0" width="1600" height="1200" fill="url(#duskSky)"/>
  <circle cx="1320" cy="160" r="90" fill="url(#sunset)" opacity="0.9"/>

  <g filter="url(#softShadow)" transform="translate(120,80)">
    <rect x="0" y="0" rx="20" ry="20" width="880" height="160" fill="#ffffff"/>
    <text x="36" y="68" font-size="56" font-weight="700" fill="#2b4c7e" font-family="'Noto Sans KR', 'Pretendard', 'Segoe UI', sans-serif">잠자리 탐험대 워크북 08</text>
    <text x="36" y="118" font-size="28" fill="#5c748f" font-family="'Noto Sans KR', 'Pretendard', 'Segoe UI', sans-serif">황혼 비행</text>
  </g>

  <!-- Silhouette hills -->
  <path d="M0,820 C240,760 360,780 520,820 C720,880 900,860 1100,820 C1280,798 1440,810 1600,820 L1600,1200 L0,1200 Z" fill="#9fb0ff"/>

  <!-- Golden dragonfly -->
  <g stroke-linecap="round" stroke-linejoin="round" transform="translate(1000,620) rotate(-10)">
    <g opacity="0.95" fill="url(#wingTint)" stroke="#dce6ff" stroke-opacity="0.9">
      <ellipse cx="-88" cy="-10" rx="110" ry="34"/>
      <ellipse cx="88" cy="-10" rx="110" ry="34"/>
      <ellipse cx="-88" cy="10" rx="110" ry="34"/>
      <ellipse cx="88" cy="10" rx="110" ry="34"/>
    </g>
    <ellipse cx="0" cy="0" rx="20" ry="24" fill="url(#thoraxGold)"/>
    <ellipse cx="0" cy="-26" rx="12" ry="10" fill="#2b2e34"/>
    <g fill="url(#abdomenGold)" stroke="#1e2d2a" stroke-width="2">
      <rect x="-6" y="20" width="12" height="22" rx="6"/>
      <rect x="-6" y="42" width="12" height="22" rx="6"/>
      <rect x="-5.6" y="64" width="11.2" height="22" rx="6"/>
      <rect x="-5.2" y="86" width="10.4" height="22" rx="6"/>
      <rect x="-4.8" y="108" width="9.6" height="22" rx="6"/>
    </g>
  </g>
</svg>
